<?xml version="1.0" standalone="no"?>
<!DOCTYPE svg PUBLIC "-//W3C//DTD SVG 20010904//EN"
 "http://www.w3.org/TR/2001/REC-SVG-20010904/DTD/svg10.dtd">
<svg version="1.0" xmlns="http://www.w3.org/2000/svg"
 width="200.000000pt" height="200.000000pt" viewBox="0 0 200.000000 200.000000"
 preserveAspectRatio="xMidYMid meet">
<metadata>
Created by potrace 1.11, written by Peter Selinger 2001-2013
</metadata>
<g transform="translate(0.000000,200.000000) scale(0.100000,-0.100000)"
fill="#000000" stroke="none">
<path d="M845 1885 c-305 -56 -557 -259 -675 -542 -94 -225 -88 -504 15 -721
115 -242 309 -408 571 -488 80 -25 104 -27 244 -27 140 0 164 2 245 27 95 29
201 79 273 128 58 40 170 151 214 213 62 87 123 221 144 316 3 13 8 38 12 54
3 17 6 93 6 170 -1 121 -5 152 -28 230 -59 196 -178 367 -336 482 -94 69 -246
135 -365 158 -63 13 -252 13 -320 0z"/>
</g>
</svg>
